<svg width="373" height="130" viewBox="0 0 373 130" fill="none" xmlns="http://www.w3.org/2000/svg">
<rect x="2.5" y="2.5" width="368" height="125" rx="22.5" fill="#FF6600" stroke="white" stroke-width="5"/>
<path d="M144.309 55.994H156.825V51.5H138.765V77.414H142.083C148.803 77.414 154.095 77.204 159.933 76.154L159.387 71.576C154.389 72.416 149.811 72.71 144.309 72.794V55.994ZM173.205 62.21H167.577V47.93H162.033V86.696H167.577V66.788H173.205V62.21ZM189.665 50.912H184.121V56.54C184.121 64.058 180.929 71.534 174.167 74.432L177.485 79.01C182.105 76.826 185.255 72.668 186.977 67.502C188.699 72.248 191.681 76.07 196.133 78.086L199.283 73.592C192.731 70.778 189.665 63.722 189.665 56.54V50.912ZM201.173 47.888V86.696H206.717V47.888H201.173ZM240.548 77.708V69.644H251.594V65.192H229.964V55.028H251.3V50.576H224.378V69.644H235.004V77.708H220.304V82.244H255.332V77.708H240.548ZM278.429 57.926V62.42H284.477V76.154H290.021V47.93H284.477V57.926H278.429ZM280.991 66.83C274.901 64.772 272.255 60.026 272.255 55.448V54.944H279.773V50.534H258.983V54.944H266.585V55.49C266.585 60.362 263.813 65.444 257.471 67.502L260.243 71.912C264.779 70.4 267.803 67.334 269.525 63.512C271.163 66.998 274.061 69.77 278.303 71.156L280.991 66.83ZM270.071 81.53V73.802H264.527V85.94H290.903V81.53H270.071Z" fill="white"/>
<path d="M105.297 53.7C102.395 50.8 98.4128 49 93.99 49C85.1445 49 78 56.16 78 65C78 73.84 85.1445 81 93.99 81C101.455 81 107.679 75.9 109.46 69H105.297C103.656 73.66 99.2133 77 93.99 77C87.3659 77 81.9825 71.62 81.9825 65C81.9825 58.38 87.3659 53 93.99 53C97.3121 53 100.274 54.38 102.435 56.56L95.9912 63H110V49L105.297 53.7Z" fill="white"/>
</svg>
