<svg width="373" height="130" viewBox="0 0 373 130" fill="none" xmlns="http://www.w3.org/2000/svg">
<rect x="2.5" y="2.5" width="368" height="125" rx="22.5" fill="#FF6600" stroke="white" stroke-width="5"/>
<path d="M167.091 56.96V60.278H158.523V64.436H167.091V67.334H172.635V47.93H167.091V52.802H159.993C160.161 51.71 160.245 50.576 160.245 49.4H142.983V53.81H154.155C153.483 58.346 149.535 62.042 140.757 63.764L142.605 68.216C151.089 66.368 156.549 62.714 158.901 56.96H167.091ZM152.727 81.866V79.43H172.635V68.762H147.141V73.13H167.091V75.314H147.183V86.234H173.433V81.866H152.727ZM198.167 69.728C199.217 63.344 199.217 58.64 199.217 54.902V51.752H179.309V56.162H193.757C193.757 59.606 193.631 63.764 192.749 69.266L198.167 69.728ZM189.725 62.84H184.265V74.264C181.829 74.306 179.477 74.306 177.335 74.306L177.839 78.842C184.559 78.8 193.211 78.632 201.065 77.288L200.771 73.298C197.243 73.718 193.463 73.97 189.725 74.096V62.84ZM213.287 63.47H208.079V47.888H202.535V86.57H208.079V68.09H213.287V63.47ZM252.998 63.176C254.09 59.186 254.09 55.91 254.09 52.844V49.652H227.294V54.02H248.546C248.546 56.582 248.42 59.186 247.538 62.63L252.998 63.176ZM240.566 82.454C235.358 82.454 232.376 81.404 232.376 79.346C232.376 77.246 235.358 76.196 240.566 76.196C245.816 76.196 248.798 77.246 248.798 79.346C248.798 81.404 245.816 82.454 240.566 82.454ZM240.566 72.038C232.25 72.038 226.874 74.81 226.874 79.346C226.874 83.84 232.25 86.612 240.566 86.612C248.924 86.612 254.3 83.84 254.3 79.346C254.3 74.81 248.924 72.038 240.566 72.038ZM241.826 65.234V58.472H236.282V65.234H223.388V69.602H258.206V65.234H241.826ZM278.111 53.642C283.151 53.642 286.385 55.154 286.385 57.884C286.385 60.656 283.151 62.126 278.111 62.126C273.029 62.126 269.795 60.656 269.795 57.884C269.795 55.154 273.029 53.642 278.111 53.642ZM278.111 66.536C286.343 66.536 292.097 63.176 292.097 57.884C292.097 52.634 286.343 49.232 278.111 49.232C269.837 49.232 264.125 52.634 264.125 57.884C264.125 63.176 269.837 66.536 278.111 66.536ZM295.709 69.434H260.681V73.928H268.619V86.57H274.205V73.928H281.975V86.57H287.603V73.928H295.709V69.434Z" fill="white"/>
<path d="M105.898 83.9996C103.741 84.0233 101.696 83.0867 100.372 81.4685C99.0476 79.8502 98.5967 77.7366 99.1531 75.7563L86.6722 68.979C84.5155 70.8562 81.3542 71.2535 78.758 69.9736C76.1618 68.6938 74.6836 66.0094 75.0574 63.2534C75.4312 60.4974 77.5774 58.2567 80.4303 57.644C83.2833 57.0312 86.2353 58.1769 87.8206 60.5122L99.1511 54.3581C99.0045 53.8319 98.9268 53.2905 98.9198 52.7462C98.8912 49.5767 101.208 46.8235 104.469 46.1523C107.729 45.4812 111.038 47.0765 112.393 49.973C113.748 52.8695 112.776 56.2716 110.067 58.1208C107.357 59.9701 103.653 59.7585 101.197 57.6141L88.9331 64.2721C88.921 64.7633 88.8487 65.2514 88.7178 65.7268L101.197 72.5021C103.494 70.4991 106.912 70.19 109.566 71.7451C112.22 73.3002 113.463 76.341 112.611 79.1904C111.758 82.0397 109.016 84.0039 105.898 83.9996ZM105.898 74.5288C104.246 74.5288 102.907 75.8009 102.907 77.3701C102.907 78.9392 104.246 80.2113 105.898 80.2113C107.55 80.2113 108.889 78.9392 108.889 77.3701C108.889 75.8009 107.55 74.5288 105.898 74.5288ZM81.9729 61.2698C80.3213 61.2698 78.9823 62.5419 78.9823 64.1111C78.9823 65.6802 80.3213 66.9523 81.9729 66.9523C83.6246 66.9523 84.9636 65.6802 84.9636 64.1111C84.9636 62.5419 83.6246 61.2698 81.9729 61.2698ZM105.898 49.905C104.246 49.905 102.907 51.177 102.907 52.7462C102.907 54.3154 104.246 55.5874 105.898 55.5874C107.55 55.5874 108.889 54.3154 108.889 52.7462C108.889 51.177 107.55 49.905 105.898 49.905Z" fill="white"/>
</svg>
